<svg xmlns="http://www.w3.org/2000/svg" xmlns:osb="http://www.openswatchbook.org/uri/2009/osb" xmlns:svg="http://www.w3.org/2000/svg" xmlns:xlink="http://www.w3.org/1999/xlink" id="svg97187" width="2000pt" height="1000pt" version="1.1" viewBox="0 0 705.556 352.778"><defs id="defs97181"><linearGradient id="linearGradient291039"><stop style="stop-color:#03263b;stop-opacity:1" id="stop291035" offset="0"/><stop style="stop-color:#03263b;stop-opacity:0" id="stop291037" offset="1"/></linearGradient><pattern id="Strips1_32white" width="33" height="1" patternTransform="translate(0,0) scale(10,10)" patternUnits="userSpaceOnUse"><rect id="rect290108" width="1" height="2" x="0" y="-.5" style="fill:#fff;stroke:none"/></pattern><linearGradient id="linearGradient441537-47-3-8-0-7-6" x1="57.695" x2="53.673" y1="231.516" y2="265.911" gradientTransform="matrix(-0.31711857,0.00125538,0.0012573,0.31663346,399.99481,57.420324)" gradientUnits="userSpaceOnUse" xlink:href="#linearGradient441533-2-8"/><linearGradient id="linearGradient441533-2-8" osb:paint="gradient"><stop style="stop-color:#863e3e;stop-opacity:1" id="stop441529" offset="0"/><stop style="stop-color:#fca0a0;stop-opacity:1" id="stop441531" offset="1"/></linearGradient><linearGradient id="linearGradient441537-47-3-8-0-2" x1="57.695" x2="53.673" y1="231.516" y2="265.911" gradientTransform="matrix(0.11818215,0.29382648,-0.29427666,0.11800137,436.03845,89.144045)" gradientUnits="userSpaceOnUse" xlink:href="#linearGradient441533-2-8"/><linearGradient id="linearGradient291041" x1="337.834" x2="-48.109" y1="67.878" y2="1079.204" gradientUnits="userSpaceOnUse" xlink:href="#linearGradient291039"/></defs><metadata id="metadata97184"/><g id="layer1" transform="translate(0,55.777789)"><path style="opacity:0;fill:url(#linearGradient291041);fill-opacity:1;stroke:none;stroke-width:.26458332px;stroke-linecap:butt;stroke-linejoin:miter;stroke-opacity:1" id="path291025" d="m 1.0690781,-8.7563623 c 0,0 157.1544819,85.5262383 288.6511019,-11.7598607 131.49659,-97.286107 203.12483,2.138157 289.72015,115.460444 86.59532,113.322259 327.13789,8.552619 327.13789,8.552619 l -1.5123,169.18282 H 0.56505156 Z"/><path style="display:inline;opacity:1;fill:#fff;fill-opacity:.97933882;stroke:#2a1616;stroke-width:.653;stroke-miterlimit:4;stroke-dasharray:none;stroke-opacity:1" id="path701788" d="m 175.42415,125.60775 -36.83827,21.03273 61.39712,35.05451 36.83826,-21.03273 -12.27941,-7.0109 -24.55885,14.02178 -12.27943,-7.01088 24.55885,-14.02178 -12.27942,-7.01088 -24.55885,14.02176 -12.27943,-7.01088 24.55885,-14.02181 z"/><path style="display:inline;opacity:1;fill:#fff;fill-opacity:.97933882;stroke:#2a1616;stroke-width:.653;stroke-miterlimit:4;stroke-dasharray:none;stroke-opacity:1" id="path701790" d="m 236.82126,90.553336 -24.82772,14.175464 0.26867,13.86821 1.09419,0.62436 48.02389,27.41936 12.27922,-7.01107 -24.55904,-14.02218 12.27982,-7.01047 24.55844,14.02157 12.27983,-7.0111 -12.27983,-7.01047 -12.27922,-7.01109 -12.27922,-7.01108 -12.27982,7.01108 V 97.564388 Z m 0,14.021504 v 14.02217 l -12.27923,-7.01109 z"/><path style="display:inline;opacity:1;fill:#fff;fill-opacity:.97933882;stroke:#2a1616;stroke-width:.653;stroke-miterlimit:4;stroke-dasharray:none;stroke-opacity:1" id="path701790-8" d="m 298.21856,55.498713 -24.82772,14.175454 0.26867,13.8681 1.0942,0.624963 48.0239,27.41869 12.27921,-7.01108 -24.55905,-14.021504 12.27984,-7.011069 24.55843,14.022121 12.27982,-7.011052 -12.27982,-7.011069 -12.27922,-7.011022 -12.27921,-7.010453 -12.27984,7.010453 V 62.509757 Z m 0,14.022079 v 14.021475 l -12.27922,-7.011022 z"/><path style="display:inline;opacity:1;fill:#fff;fill-opacity:.97933882;stroke:#2a1616;stroke-width:.653;stroke-miterlimit:4;stroke-dasharray:none;stroke-opacity:1" id="path701812" d="m 359.61586,20.444667 -36.83825,21.032519 61.39669,35.054059 36.83828,-21.032532 z m 0,14.021491 36.83827,21.032555 -12.27983,7.011044 -36.83826,-21.032571 z"/><path style="display:inline;opacity:1;fill:#fff;fill-opacity:.97933882;stroke:#2a1616;stroke-width:.653;stroke-miterlimit:4;stroke-dasharray:none;stroke-opacity:1" id="path701790-4" d="m 421.01258,-14.609941 -24.82772,14.17543091 0.26927,13.86810609 1.0942,0.62496 48.02328,27.41863 12.27924,-7.011028 -24.55845,-14.021491 12.27921,-7.011071 24.55907,14.022097 12.27921,-7.011026 L 470.13068,13.433596 457.85085,6.4225629 445.57161,-0.58788509 433.2924,6.4225629 v -14.021493 z m 0,14.02205591 V 13.433596 L 408.73335,6.4225629 Z"/><path style="display:inline;opacity:1;fill:#72cdff;fill-opacity:.99139111;stroke:#626262;stroke-width:.31088942px;stroke-linecap:butt;stroke-linejoin:miter;stroke-opacity:1" id="path701973" d="m 138.58588,146.64048 v 14.02178 l 49.11769,28.04364 12.27943,7.01091 36.83826,-21.03273 V 160.66226 L 199.983,181.69499 Z"/><path style="display:inline;opacity:1;fill:#72cdff;fill-opacity:.99139111;stroke:#626262;stroke-width:.31088942px;stroke-linecap:butt;stroke-linejoin:miter;stroke-opacity:1" id="path701975" d="m 212.26243,118.59686 v 14.02181 l 49.11768,28.04359 12.27944,-7.0109 V 139.6296 l -12.27944,7.01088 z"/><path style="display:inline;opacity:1;fill:#72cdff;fill-opacity:.99139111;stroke:#626262;stroke-width:.31088942px;stroke-linecap:butt;stroke-linejoin:miter;stroke-opacity:1" id="path701975-1" d="m 273.65955,83.542425 v 14.021739 l 49.11769,28.043616 12.27943,-7.01092 v -14.0218 l -12.27943,7.0109 z"/><path style="display:inline;opacity:1;fill:#72cdff;fill-opacity:.99139111;stroke:#626262;stroke-width:.31088942px;stroke-linecap:butt;stroke-linejoin:miter;stroke-opacity:1" id="path701975-4" d="m 396.45379,13.433701 v 14.021723 l 49.11769,28.043511 12.27944,-7.010872 V 34.466322 l -12.27944,7.010864 z"/><path style="display:inline;opacity:1;fill:#72cdff;fill-opacity:.99139111;stroke:#626262;stroke-width:.31088942px;stroke-linecap:butt;stroke-linejoin:miter;stroke-opacity:1" id="path701973-7" d="m 322.77724,41.477175 v 14.02176 l 49.11768,28.043465 12.27943,7.010878 36.83827,-21.032603 v -14.02174 l -36.83827,21.032617 z"/><path style="display:inline;opacity:1;fill:#005c94;stroke:#626262;stroke-width:.31088942px;stroke-linecap:butt;stroke-linejoin:miter;stroke-opacity:1" id="path702028" d="m 298.21839,125.60775 v 14.02185 l -12.27943,7.01088 -12.27941,-7.01088 -24.55885,-14.02185 12.27941,-7.01089 24.55885,14.02181 z"/><path style="display:inline;opacity:1;fill:#005c94;stroke:#626262;stroke-width:.31088942px;stroke-linecap:butt;stroke-linejoin:miter;stroke-opacity:1" id="path702028-0" d="m 359.6155,90.553262 v 14.021788 l -12.27942,7.01089 -12.27943,-7.01089 -24.55883,-14.021788 12.27941,-7.010853 24.55885,14.021746 z"/><path style="display:inline;opacity:1;fill:#005c94;stroke:#626262;stroke-width:.31088942px;stroke-linecap:butt;stroke-linejoin:miter;stroke-opacity:1" id="path702028-7" d="m 482.40976,20.444527 v 14.021782 l -12.27942,7.010866 -12.27942,-7.010866 -24.55886,-14.021782 12.27942,-7.010837 24.55886,14.021734 z"/><path style="display:inline;opacity:1;fill:#72ceff;fill-opacity:.99215686;stroke:#626262;stroke-width:.31088942px;stroke-linecap:butt;stroke-linejoin:miter;stroke-opacity:1" id="path702051" d="m 359.6155,34.466309 c 0,14.021731 0,14.021731 0,14.021731 l 24.55885,14.021776 12.27942,-7.010881 z"/><path style="display:inline;opacity:1;fill:#005c94;stroke:#626262;stroke-width:.31088942px;stroke-linecap:butt;stroke-linejoin:miter;stroke-opacity:1" id="path702059" d="m 187.70357,132.61867 v 14.02181 l -12.27942,7.01088 -12.27942,-7.01088 z"/><path style="display:inline;opacity:1;fill:#005c94;stroke:#626262;stroke-width:.31088942px;stroke-linecap:butt;stroke-linejoin:miter;stroke-opacity:1" id="path702059-8" d="m 212.26243,146.6405 v 14.02176 l -12.27943,7.01091 -12.27943,-7.01091 z"/><path style="display:inline;opacity:1;fill:#666;fill-opacity:.97933882;fill-rule:evenodd;stroke:none;stroke-width:.31088942;paint-order:fill markers stroke" id="path702133" d="m 298.21839,223.76032 v 28.04347"/><path style="display:inline;opacity:1;fill:#72ceff;fill-opacity:.99215686;stroke-width:.31088942" id="path701840" d="m 382.00425,112.69129 c -24.55884,13.40348 -24.55904,13.40377 -61.39731,34.43649 l 110.51479,63.71617 49.11808,-28.04366 12.27921,-7.62883 z m 0,27.42542 61.3973,35.05475 -12.27982,7.01051 -61.3967,-35.05419 z"/><path style="display:inline;opacity:1;fill:#72ceff;fill-opacity:.99215686;stroke-width:.31088942" id="path701834-6" d="M 283.76905,168.16106 259.2102,182.1829 v 56.08654 l 24.55906,14.02184 36.83826,-21.03256 12.27922,-7.01103 36.83826,21.03256 24.55905,-14.02153 -36.83827,-21.03252 24.55843,-14.02149 -24.55843,-14.02217 -24.55904,14.02217 z m 2.1e-4,28.04365 24.55844,14.02149 -24.55844,14.02149 z"/><path style="display:inline;opacity:1;fill:#72ceff;fill-opacity:.99215686;stroke-width:.31088942" id="path701834-6-5" d="M 455.68096,55.986319 431.12212,70.00806 v 56.0871 l 24.55887,14.02167 36.83827,-21.03267 12.27921,-7.01108 36.83826,21.03267 24.55904,-14.02159 -36.83824,-21.032608 24.55841,-14.021496 -24.55841,-14.022102 -24.55906,14.022102 z m 3e-5,28.043737 24.55844,14.021496 -24.55844,14.021528 z"/><path style="display:inline;opacity:1;fill:#025e96;fill-opacity:1;stroke-width:1.17501521" id="path702076" d="m 357.44558,182.18238 v 28.04355 l 24.55885,-14.02173 z"/><path style="display:inline;opacity:1;fill:#025e96;fill-opacity:1;stroke:none;stroke-width:.31088942px;stroke-linecap:butt;stroke-linejoin:miter;stroke-opacity:1" id="path702078" d="m 357.44558,210.22593 v 28.04351 l 12.27943,7.01088 24.55884,-14.02177 z"/><path style="display:inline;opacity:1;fill:#025e96;fill-opacity:1;fill-rule:evenodd;stroke:none;stroke-width:.31088942;paint-order:fill markers stroke" id="path702084" d="m 382.00443,112.07333 v 28.04365 l 61.39713,35.05448 v 28.04361 l 49.1177,-28.04361 z"/><path style="display:inline;opacity:1;fill:#025e96;fill-opacity:1;fill-rule:evenodd;stroke:none;stroke-width:.31088942;paint-order:fill markers stroke" id="path702086" d="m 431.12214,182.18238 v 28.04355 l -61.39713,-35.05447 v -28.04359 z"/><path style="display:inline;opacity:1;fill:#025e96;fill-opacity:1;fill-rule:evenodd;stroke:none;stroke-width:.31088942;paint-order:fill markers stroke" id="path702123" d="m 332.88674,196.2042 v 0 28.0435 L 308.3279,238.26944 V 210.22593 L 283.76905,196.2042 v -28.04366 z"/><path style="display:inline;opacity:1;fill:#025e96;fill-opacity:1;stroke-width:1.17501521" id="path702076-9" d="M 529.35753,70.00806 V 98.051552 L 553.91638,84.029806 Z"/><path style="display:inline;opacity:1;fill:#025e96;fill-opacity:1;stroke:none;stroke-width:.31088942px;stroke-linecap:butt;stroke-linejoin:miter;stroke-opacity:1" id="path702078-4" d="m 529.35753,98.051552 v 28.043618 l 12.27943,7.01093 24.55885,-14.02186 z"/><path style="display:inline;opacity:1;fill:#025e96;fill-opacity:1;fill-rule:evenodd;stroke:none;stroke-width:.31088942;paint-order:fill markers stroke" id="path702123-6" d="m 504.79869,84.029806 v 0 28.043564 l -24.55885,14.0218 V 98.051552 L 455.68099,84.029806 V 55.986319 Z"/><path style="display:inline;opacity:1;fill:#005c94;fill-opacity:.97933882;fill-rule:evenodd;stroke-width:1.17501521;paint-order:fill markers stroke" id="path702247" d="m 199.983,181.69499 v 14.02182 l 36.83826,-21.03273 v -14.02182 z"/><path style="display:inline;opacity:1;fill:#005c94;fill-opacity:.97933882;fill-rule:evenodd;stroke-width:.31088942;paint-order:fill markers stroke" id="path702249" d="m 261.38011,146.64048 v 14.02178 l 12.27944,-7.0109 -4e-5,-14.0217 z"/><path style="display:inline;opacity:1;fill:#005c94;fill-opacity:.97933882;fill-rule:evenodd;stroke-width:.31088942;paint-order:fill markers stroke" id="path702251" d="m 322.77761,111.58592 -3.2e-4,14.02186 12.27944,-7.01092 v -14.0218 z"/><path style="display:inline;opacity:1;fill:#005c94;fill-opacity:.97933882;fill-rule:evenodd;stroke-width:.31088942;paint-order:fill markers stroke" id="path702253" d="m 457.85092,34.466309 c -12.27931,7.010877 -12.27931,7.010877 -12.27931,7.010877 l -1.3e-4,14.021749 12.27944,-7.010895 z"/><path style="display:inline;opacity:1;fill:#005c94;fill-opacity:.97933882;fill-rule:evenodd;stroke-width:.31088942;paint-order:fill markers stroke" id="path702255" d="m 384.1743,76.531245 5e-5,14.022033 36.83827,-21.032615 -4e-5,-14.02195 z"/><path style="display:inline;opacity:1;fill:#72cfff;fill-opacity:.99215686;fill-rule:evenodd;stroke-width:.31088942;paint-order:fill markers stroke" id="path702257" d="m 445.57148,13.43369 c 0,0 0.83603,14.076419 -0.17854,13.574779 -1.0146,-0.501675 -1.0146,-0.501675 -1.0146,-0.501675 l 25.752,14.970369 V 27.455693 L 445.57114,13.43369 v 0 z"/><path style="display:inline;opacity:1;fill:#72cdff;fill-opacity:.99139111;fill-rule:evenodd;stroke-width:.31088942;paint-order:fill markers stroke" id="path702257-5" d="m 322.7772,83.542367 c 0,0 0.83602,14.076425 -0.17854,13.574787 -1.01461,-0.50168 -1.01461,-0.50168 -1.01461,-0.50168 l 25.75199,14.970406 V 97.564388 L 322.77685,83.542367 v 0 z"/><path style="display:inline;opacity:1;fill:#72cdff;fill-opacity:.99139111;fill-rule:evenodd;stroke-width:.31088942;paint-order:fill markers stroke" id="path702257-55" d="m 261.38011,118.59658 c 0,0 0.83604,14.0765 -0.17854,13.57485 -1.0146,-0.50167 -1.0146,-0.50167 -1.0146,-0.50167 l 25.75199,14.97043 v -14.02152 l -24.55919,-14.02209 v 0 z"/><path style="display:inline;opacity:1;fill:url(#linearGradient441537-47-3-8-0-2);fill-opacity:1;stroke:none;stroke-width:.08384074px;stroke-linecap:butt;stroke-linejoin:miter;stroke-opacity:1" id="path440058-86-2-2-6-9-6" d="m 366.23485,133.25609 -6.44081,2.1313 c -2.57873,-5.01176 -2.58212,-1.85988 -1.28786,2.25753 l 8.50995,-2.76754 z"/><path style="display:inline;opacity:1;fill:#fca0a0;fill-opacity:1;stroke:#ee8b8b;stroke-width:.38025412;stroke-linecap:round;stroke-linejoin:round;stroke-miterlimit:4;stroke-dasharray:none;stroke-opacity:1" id="path233149-8-4-9" d="m 366.6295,120.92085 -4.1555,-3.60412 c 0.18665,-0.075 0.14092,-2.46241 -0.56584,-0.3701 -1.02474,-2.57565 -1.70485,-2.01609 -0.6427,0.0538 -1.85952,-2.19937 -2.52023,-1.36019 -0.6397,0.21097 -1.98433,-0.59014 -1.76711,0.44733 -0.23789,0.37568 1.76902,1.01389 2.77288,3.0191 3.79609,4.32119"/><path style="display:inline;opacity:1;fill:url(#linearGradient441537-47-3-8-0-7-6);fill-opacity:1;stroke:none;stroke-width:.08384074px;stroke-linecap:butt;stroke-linejoin:miter;stroke-opacity:1" id="path440058-86-2-2-6-9-9-9" d="m 385.33399,138.59456 0.44636,6.76027 c 5.62088,0.49933 2.69755,1.68868 -1.61006,2.04098 l -0.63473,-8.91382 z"/><g id="use439386-3-9-1-1-5-9-1-6-5-2" transform="matrix(5.5775182,0.27408692,-0.5517078,6.2410242,357.62619,89.863675)" style="display:inline;opacity:1;fill:#fca0a0;stroke:#f89696;stroke-width:.16077711;stroke-linecap:round;stroke-linejoin:round;stroke-miterlimit:4;stroke-dasharray:none;stroke-opacity:1"><title id="title439400-7-6-9-2-2-6-3-4-1-9">ios-cloud</title><path id="path439402-2-1-1-0-56-7-3-03-6" d="M 7.0384957,4.9735508 C 6.6633597,3.6241109 5.0869387,4.3056467 5.3802635,4.1712536 4.5794221,3.2506679 3.6248304,3.5883683 3.3838111,4.0837573 3.2499269,4.0160237 3.1009665,3.9779237 2.940629,3.9779237 c -0.4894792,0 -0.8945563,0.3918479 -0.9739313,0.8598958 -0.5820833,0.2016125 -0.9568753,0.51118 -0.9568753,1.1657592 0,0.3487012 0.3987787,0.6102175 0.6362995,0.6145666 0.7204906,0.1314328 -0.00184,0.7793202 1.7566685,0.5738824 -0.019264,0.080912 0.2102131,0.3643664 0.7340754,0.5049622 0.5238622,0.1405958 1.0329863,-0.046615 0.980648,-0.1480756 1.4247493,1.0650109 2.3829554,0.052753 2.1429692,0.051341 0.3546217,0.124394 1.3154957,0.099966 1.1129755,-0.698098 C 8.3498052,6.8089472 8.280649,6.6706133 8.0819948,6.5553991 7.8068349,6.3958134 8.0211998,6.5869552 8.1119326,6.1791946 8.2759512,5.4420816 7.7875311,4.9748737 7.0382311,4.9732862 Z" style="fill:#fca0a0;stroke:#f89696;stroke-width:.16077711;stroke-linecap:round;stroke-linejoin:round;stroke-miterlimit:4;stroke-dasharray:none;stroke-opacity:1"/></g><path style="display:inline;opacity:1;fill:#fca0a0;fill-opacity:1;stroke:#ee8b8b;stroke-width:.44319123;stroke-linecap:round;stroke-linejoin:round;stroke-miterlimit:4;stroke-dasharray:none;stroke-opacity:1" id="path233149-7-5" d="m 395.99249,132.90026 6.15417,-0.58874 c -0.11508,-0.20628 1.5516,-2.51918 0.75582,0.0383 2.66649,-1.8024 2.89087,-0.76953 0.53559,0.50933 3.1534,-0.83971 3.17008,0.45404 0.42583,0.66169 2.16853,0.82984 1.26855,1.69478 -0.0441,0.53804 -2.26543,-0.26061 -4.52482,0.99619 -6.32258,1.54851"/><path style="display:inline;opacity:1;fill:#000;fill-opacity:1;fill-rule:evenodd;stroke:none;stroke-width:.03279885;stroke-linecap:round;stroke-linejoin:round;stroke-miterlimit:4;stroke-dasharray:none;stroke-opacity:.92561987;paint-order:fill markers stroke" id="path206109-8-5" d="m 376.40885,127.33477 c -1.50624,0.16228 -1.66174,2.19733 -0.31103,2.36021 1.07857,0.13013 2.35353,1.75438 3.06593,1.52911 0.56314,-0.17809 0.869,-1.02792 0.31246,-2.10506 -0.56001,-1.08382 -1.79589,-1.92126 -3.06736,-1.78426 z"/><path style="display:inline;opacity:1;fill:#fff;fill-opacity:1;fill-rule:evenodd;stroke:none;stroke-width:.54837233;stroke-miterlimit:4;stroke-dasharray:none;stroke-opacity:1;paint-order:fill markers stroke" id="path421573-7-0-6-8-8-3" d="m 378.43695,121.81049 c 0.11849,2.47612 -1.18968,3.22189 -4.27858,2.82935 -2.33676,-0.29699 -3.55622,-0.43006 -3.73538,-2.72522 -0.19313,-2.47414 1.43348,-4.12733 4.05004,-4.20066 3.15028,-0.0883 3.8495,1.70543 3.96392,4.09653 z"/><path style="display:inline;opacity:1;fill:#fff;fill-opacity:1;fill-rule:evenodd;stroke:none;stroke-width:.54837233;stroke-miterlimit:4;stroke-dasharray:none;stroke-opacity:1;paint-order:fill markers stroke" id="path421573-7-0-6-6-8" d="m 381.30545,122.61695 c -1.3116,2.10479 -0.53302,3.3924 2.35608,4.55207 2.18563,0.87729 3.31554,1.35423 4.5918,-0.56301 1.3758,-2.06677 0.76185,-4.30173 -1.48746,-5.6385 -2.70811,-1.60943 -4.19389,-0.38308 -5.46042,1.64944 z"/><ellipse style="display:inline;opacity:1;fill:#b44646;fill-opacity:1;fill-rule:evenodd;stroke:none;stroke-width:1.36752212;stroke-linecap:round;stroke-linejoin:round;stroke-miterlimit:4;stroke-dasharray:none;stroke-opacity:1;paint-order:fill markers stroke" id="path230870-9-0-6" cx="399.182" cy="68.839" rx="1.638" ry="2.01" transform="matrix(0.99005878,0.14065424,-0.15086505,0.98855437,0,0)"/><ellipse style="display:inline;opacity:1;fill:#b44646;fill-opacity:1;fill-rule:evenodd;stroke:none;stroke-width:1.36752164;stroke-linecap:round;stroke-linejoin:round;stroke-miterlimit:4;stroke-dasharray:none;stroke-opacity:1;paint-order:fill markers stroke" id="path230870-9-5-4-7" cx="388.328" cy="72.442" rx="1.638" ry="2.01" transform="matrix(0.99164342,0.12900901,-0.13920249,0.99026394,0,0)"/><path style="display:inline;opacity:1;fill:#fff;fill-opacity:.65289259;fill-rule:evenodd;stroke:#e0c6c6;stroke-width:.57506943;stroke-miterlimit:4;stroke-dasharray:none;stroke-opacity:.92561987;paint-order:fill markers stroke" id="path289010-5-9-9-2-3-6-3" d="m 389.54394,117.37134 c -2.39143,-0.85858 -4.85204,-1.68476 -7.07177,-2.10726 -1.59511,-0.73942 -3.37605,-1.41019 -5.14214,-2.04427 -6.08712,-2.1854 -9.67828,-3.11271 -11.52586,1.27989 -1.84759,4.39259 -0.0368,9.0479 6.05039,11.23332 2.2195,0.79683 4.39299,-0.63702 7.35509,0.3454 2.77318,0.55881 3.20289,3.21159 5.22762,3.93852 6.08712,2.1854 10.82521,-0.1187 12.6728,-4.51128 1.84759,-4.39261 -1.47902,-5.94891 -7.56613,-8.13432 z"/><path style="display:inline;opacity:1;fill:#005c94;fill-opacity:.99215686;fill-rule:evenodd;stroke:none;stroke-width:.31088942;stroke-opacity:1;paint-order:fill markers stroke" id="path712006" d="M 359.6155,34.466309 V 48.48804 l -12.27946,-7.010854 z"/><path style="display:inline;opacity:1;fill:#005c94;fill-opacity:.99215686;fill-rule:evenodd;stroke:none;stroke-width:.31088942;stroke-opacity:1;paint-order:fill markers stroke" id="path712006-7" d="m 236.82126,104.57484 v 14.0218 l -12.27949,-7.01088 z"/><path style="display:inline;opacity:1;fill:#005c94;fill-opacity:.99215686;fill-rule:evenodd;stroke:none;stroke-width:.31088942;stroke-opacity:1;paint-order:fill markers stroke" id="path712006-6" d="M 298.21881,69.520359 V 83.542084 L 285.93934,76.531245 Z"/><path style="display:inline;opacity:1;fill:#005c94;fill-opacity:.99215686;fill-rule:evenodd;stroke:none;stroke-width:.31088942;stroke-opacity:1;paint-order:fill markers stroke" id="path712006-5" d="M 421.01258,-0.58814109 V 13.433596 L 408.73311,6.4227499 Z"/><path style="display:inline;opacity:1;fill:#025e96;fill-opacity:1;fill-rule:evenodd;stroke:#004e8f;stroke-width:.31088942;stroke-opacity:1;paint-order:fill markers stroke" id="path712243-0" d="m 455.68119,112.07337 c 24.55843,-14.021544 24.55843,-14.021544 24.55843,-14.021544 l 2.2e-4,28.043344 -24.55865,14.02192 z"/><path style="display:inline;opacity:1;fill:#025e96;fill-opacity:1;fill-rule:evenodd;stroke:#004e8f;stroke-width:.31088942;stroke-opacity:1;paint-order:fill markers stroke" id="path712243-0-0" d="M 283.76926,224.24769 C 308.3277,210.2262 308.3277,210.2262 308.3277,210.2262 l 2e-4,28.04322 -24.55864,14.02186 z"/><rect style="opacity:0;fill:#0e232e;fill-opacity:1;fill-rule:evenodd;stroke:none;stroke-width:13.39999962;stroke-miterlimit:4;stroke-dasharray:none;stroke-opacity:1;paint-order:fill markers stroke" id="rect291043" width="903.555" height="426.054" x=".565" y="-153.374"/></g></svg>